<?xml version="1.0" encoding="utf-8"?>
<svg xmlns="http://www.w3.org/2000/svg" style="margin: auto; background: none; display: block; shape-rendering: auto;" width="280" height="250" preserveAspectRatio="xMidYMid">
<style type="text/css">
  text {
    text-anchor: middle; font-size: 67px; opacity: 0;
  }
</style>
<g style="transform-origin:140px 125px;transform:scale(1)">
<g transform="translate(140,125)">
  <g transform="translate(0,0)"><g class="path" style="transform: matrix(1, 0, 0, 1, 0, 14.925); opacity: 0.05; transform-origin: -74.7px -5.52617px; animation: 1s linear 0s 1 normal forwards running float-btt-in-ac27e275-c4a9-4c17-92fe-31e9f3bd7a06;"><path d="M1.41-45.63L1.41-46.90L22.31-46.90L22.31-45.63L18.43-45.63L18.43-24.86L31.76-24.86L31.76-45.63L27.81-45.63L27.81-46.90L48.78-46.90L48.78-45.63L44.82-45.63L44.82-1.27L48.78-1.27L48.78 0L27.81 0L27.81-1.27L31.76-1.27L31.76-23.12L18.43-23.12L18.43-1.27L22.31-1.27L22.31 0L1.41 0L1.41-1.27L5.36-1.27L5.36-45.63L1.41-45.63" fill="#93dbe9" stroke="none" stroke-width="none" transform="translate(-99.79501342773438,17.92383508300781)" style="fill: rgb(147, 219, 233);"></path></g><g class="path" style="transform: matrix(1, 0, 0, 1, 0, 14.925); opacity: 0.05; transform-origin: -30.215px 2.31384px; animation: 1s linear 0.132s 1 normal forwards running float-btt-in-ac27e275-c4a9-4c17-92fe-31e9f3bd7a06;"><path d="M89.38-1.21L89.38 0L74.10 0L73.36-4.89L73.36-4.89Q72.29-2.21 70.18-0.77L70.18-0.77L70.18-0.77Q68.07 0.67 63.92 0.67L63.92 0.67L63.92 0.67Q53.53 0.67 53.53-10.52L53.53-10.52L53.53-30.69L49.78-30.69L49.78-31.89L66.00-31.89L66.00-8.91L66.00-8.91Q66.00-4.89 66.56-3.62L66.56-3.62L66.56-3.62Q67.13-2.35 68.84-2.35L68.84-2.35L68.84-2.35Q70.55-2.35 71.89-4.42L71.89-4.42L71.89-4.42Q73.23-6.50 73.23-10.18L73.23-10.18L73.23-30.69L70.15-30.69L70.15-31.89L85.69-31.89L85.69-1.21L89.38-1.21" fill="#93dbe9" stroke="none" stroke-width="none" transform="translate(-99.79501342773438,17.92383508300781)" style="fill: rgb(104, 156, 197);"></path></g><g class="path" style="transform: matrix(1, 0, 0, 1, 0, 14.925); opacity: 0.05; transform-origin: 6.69999px 1.97884px; animation: 1s linear 0.264s 1 normal forwards running float-btt-in-ac27e275-c4a9-4c17-92fe-31e9f3bd7a06;"><path d="M93.06-31.89L121.20-31.89L121.20-30.69L105.32-1.21L106.19-1.21L106.19-1.21Q111.82-1.21 115.04-4.15L115.04-4.15L115.04-4.15Q118.25-7.10 120.06-13.74L120.06-13.74L121.00-13.74L119.93 0L91.79 0L91.79-1.01L107.94-30.69L107.20-30.69L107.20-30.69Q100.43-30.69 97.79-28.48L97.79-28.48L97.79-28.48Q95.14-26.26 93.06-19.03L93.06-19.03L92.19-19.03L93.06-31.89" fill="#93dbe9" stroke="none" stroke-width="none" transform="translate(-99.79501342773438,17.92383508300781)" style="fill: rgb(94, 111, 163);"></path></g><g class="path" style="transform: matrix(1, 0, 0, 1, 0, 14.925); opacity: 0.05; transform-origin: 41.94px 1.97883px; animation: 1s linear 0.396s 1 normal forwards running float-btt-in-ac27e275-c4a9-4c17-92fe-31e9f3bd7a06;"><path d="M145.86-13.20L145.86-13.20L145.86-18.89L145.86-18.89Q145.86-25.39 145.16-28.37L145.16-28.37L145.16-28.37Q144.45-31.36 141.91-31.36L141.91-31.36L141.91-31.36Q140.43-31.36 139.53-30.52L139.53-30.52L139.53-30.52Q138.62-29.68 138.22-27.74L138.22-27.74L138.22-27.74Q137.62-24.72 137.62-18.56L137.62-18.56L137.62-13.33L137.62-13.33Q137.62-6.03 138.05-4.56L138.05-4.56L138.05-4.56Q138.49-3.08 138.96-2.14L138.96-2.14L138.96-2.14Q139.69-0.54 141.84-0.54L141.84-0.54L141.84-0.54Q144.45-0.54 145.26-3.55L145.26-3.55L145.26-3.55Q145.86-5.70 145.86-13.20zM141.71 0.67L141.71 0.67Q133.33 0.67 129.04-3.62L129.04-3.62L129.04-3.62Q124.75-7.91 124.75-15.91L124.75-15.91L124.75-15.91Q124.75-23.92 129.34-28.24L129.34-28.24L129.34-28.24Q133.93-32.56 142.24-32.56L142.24-32.56L142.24-32.56Q150.55-32.56 154.64-28.58L154.64-28.58L154.64-28.58Q158.72-24.59 158.72-16.42L158.72-16.42L158.72-16.42Q158.72 0.67 141.71 0.67L141.71 0.67" fill="#93dbe9" stroke="none" stroke-width="none" transform="translate(-99.79501342773438,17.92383508300781)" style="fill: rgb(59, 67, 104);"></path></g><g class="path" style="transform: matrix(1, 0, 0, 1, 0, 14.925); opacity: 0.05; transform-origin: 81.07px 1.64384px; animation: 1s linear 0.528s 1 normal forwards running float-btt-in-ac27e275-c4a9-4c17-92fe-31e9f3bd7a06;"><path d="M160.73-30.69L160.73-31.89L176.88-31.89L176.88-25.73L176.88-25.73Q177.95-28.81 180.16-30.69L180.16-30.69L180.16-30.69Q182.37-32.56 186.86-32.56L186.86-32.56L186.86-32.56Q197.25-32.56 197.25-21.37L197.25-21.37L197.25-1.21L201-1.21L201 0L182.04 0L182.04-1.21L184.79-1.21L184.79-22.98L184.79-22.98Q184.79-27.00 184.25-28.17L184.25-28.17L184.25-28.17Q183.71-29.35 182.31-29.35L182.31-29.35L182.31-29.35Q180.16-29.35 178.52-26.53L178.52-26.53L178.52-26.53Q176.88-23.72 176.88-19.70L176.88-19.70L176.88-1.21L179.76-1.21L179.76 0L160.73 0L160.73-1.21L164.42-1.21L164.42-30.69L160.73-30.69" fill="#93dbe9" stroke="none" stroke-width="none" transform="translate(-99.79501342773438,17.92383508300781)" style="fill: rgb(25, 29, 58);"></path></g></g>
</g>
</g>
<style id="float-btt-in-ac27e275-c4a9-4c17-92fe-31e9f3bd7a06" data-anikit="">@keyframes float-btt-in-ac27e275-c4a9-4c17-92fe-31e9f3bd7a06
{
  0% {
    animation-timing-function: cubic-bezier(0.2242,0.7499,0.3142,0.8148);
    transform: translate(0px,14.925px) rotate(0deg) scale(1,1) skewX(0deg) skewY(0deg);
    opacity: 0.05;
  }
  100% {
    transform: translate(0px,0px) rotate(0deg) scale(1,1) skewX(0deg) skewY(0deg);
    opacity: 1;
  }
}</style></svg>